<?xml version="1.0" standalone="no"?>
<!DOCTYPE svg PUBLIC "-//W3C//DTD SVG 20010904//EN"
 "http://www.w3.org/TR/2001/REC-SVG-20010904/DTD/svg10.dtd">
<svg version="1.0" xmlns="http://www.w3.org/2000/svg"
 width="165.000000pt" height="165.000000pt" viewBox="0 0 165.000000 165.000000"
 preserveAspectRatio="xMidYMid meet">
<metadata>
Created by potrace 1.14, written by Peter Selinger 2001-2017
</metadata>
<g transform="translate(0.000000,165.000000) scale(0.100000,-0.100000)"
fill="#000000" stroke="none">
<path d="M2 1006 c0 -198 3 -276 12 -278 6 -2 254 -4 551 -4 l540 1 3 278 2
277 -553 0 -554 0 -1 -274z"/>
<path d="M1150 999 l0 -161 53 7 c139 19 214 101 221 244 4 69 3 72 -17 69
-18 -3 -21 -10 -22 -60 -3 -119 -62 -191 -174 -213 -21 -4 -21 -2 -21 136 0
132 -1 139 -20 139 -19 0 -20 -7 -20 -161z"/>
<path d="M310 700 c-8 -5 -11 -10 -6 -10 5 0 1 -9 -9 -20 -18 -20 -18 -22 -1
-50 17 -30 17 -30 -5 -38 -15 -6 -19 -11 -10 -16 28 -18 54 37 30 61 -12 12
-4 48 8 40 5 -3 9 6 9 19 1 13 1 24 0 24 0 0 -8 -5 -16 -10z"/>
<path d="M352 668 c-15 -19 -24 -81 -13 -97 14 -22 39 -5 50 33 16 59 -7 99
-37 64z m28 -32 c0 -31 -10 -56 -22 -56 -9 0 -9 55 0 73 8 16 22 5 22 -17z"/>
<path d="M415 658 c-2 -13 -7 -40 -10 -60 -4 -33 -2 -38 15 -38 11 0 20 5 20
11 0 5 -5 7 -11 3 -7 -4 -9 10 -4 50 7 55 0 78 -10 34z"/>
<path d="M472 668 c-15 -15 -15 -41 -1 -55 14 -14 4 -47 -11 -38 -5 3 -10 1
-10 -4 0 -15 25 -14 38 2 13 16 10 40 -7 61 -11 13 -11 17 3 22 9 3 16 10 16
15 0 13 -14 11 -28 -3z"/>
<path d="M520 658 c0 -13 -3 -41 -6 -63 -5 -39 -5 -40 10 -15 15 25 15 25 16
3 0 -13 4 -23 9 -23 4 0 6 18 4 39 -3 22 0 42 6 46 6 3 11 14 11 23 -1 16 -2
16 -14 0 -16 -22 -27 -23 -20 -3 4 8 1 15 -5 15 -6 0 -11 -10 -11 -22z"/>
<path d="M585 651 c-12 -54 -14 -92 -6 -86 10 6 26 104 18 111 -3 3 -8 -8 -12
-25z"/>
<path d="M654 655 c-21 -33 -15 -89 11 -93 16 -3 18 -1 8 9 -21 21 -16 77 7
89 11 6 20 7 21 3 2 -16 -2 -68 -7 -85 -4 -14 0 -18 17 -18 18 0 20 3 11 12
-18 18 -15 38 6 38 16 1 16 2 0 13 -11 9 -14 18 -7 28 14 22 11 26 -21 27 -22
0 -35 -6 -46 -23z"/>
<path d="M760 660 c0 -26 0 -24 -10 -60 -5 -16 -5 -32 0 -35 9 -6 19 23 27 78
3 23 1 37 -6 37 -6 0 -11 -9 -11 -20z"/>
<path d="M800 661 c0 -11 -4 -22 -8 -25 -12 -7 -14 -76 -2 -76 5 0 10 3 10 8
0 4 3 31 6 60 4 28 4 52 0 52 -3 0 -6 -9 -6 -19z"/>
<path d="M833 617 c-3 -67 14 -62 19 6 1 21 6 37 10 37 4 0 8 5 8 10 0 6 -8
10 -17 10 -15 0 -18 -11 -20 -63z"/>
<path d="M894 672 c-6 -4 -15 -31 -19 -59 -6 -44 -4 -53 8 -53 9 0 19 5 23 12
4 7 3 8 -4 4 -8 -5 -12 0 -12 13 0 10 6 22 13 25 9 5 9 7 -1 12 -10 5 -10 11
3 30 15 24 11 31 -11 16z"/>
<path d="M935 668 c-12 -39 -15 -108 -5 -108 6 0 9 3 7 8 -3 4 -1 16 4 27 7
19 8 19 8 -2 1 -12 6 -25 12 -29 9 -5 10 1 5 19 -3 15 -1 35 5 46 7 10 9 26 6
35 -7 19 -36 22 -42 4z m25 -23 c0 -8 -4 -15 -10 -15 -5 0 -7 7 -4 15 4 8 8
15 10 15 2 0 4 -7 4 -15z"/>
<path d="M1031 675 c-7 -24 -6 -107 1 -111 8 -5 51 106 44 114 -6 5 -25 -41
-28 -66 0 -9 -4 3 -8 28 -4 25 -8 41 -9 35z"/>
<path d="M1089 665 c0 -5 -2 -17 -4 -25 -14 -69 -13 -80 6 -80 10 0 19 5 19
10 0 6 -4 10 -10 10 -5 0 -10 7 -10 15 0 8 8 15 17 15 13 0 14 3 5 12 -17 17
-15 38 3 38 8 0 15 4 15 9 0 13 -40 9 -41 -4z"/>
<path d="M1145 670 c-3 -5 -9 -32 -12 -60 -5 -46 -4 -50 16 -50 11 0 21 5 21
10 0 6 -5 9 -12 8 -12 -3 -13 45 -2 85 6 18 -1 23 -11 7z"/>
<path d="M1196 672 c-3 -5 -8 -32 -11 -60 -6 -49 -5 -52 17 -52 20 1 21 2 8
13 -16 13 -15 51 1 42 5 -4 9 -1 9 4 0 6 -4 11 -8 11 -5 0 -9 7 -9 15 0 8 6
15 14 15 7 0 13 5 13 10 0 12 -27 13 -34 2z"/>
<path d="M1246 659 c-15 -71 -17 -101 -7 -94 6 3 11 18 12 33 l1 27 11 -30
c15 -39 53 -46 66 -13 14 38 20 98 11 98 -5 0 -12 -22 -16 -50 -4 -27 -10 -50
-15 -50 -14 0 -24 5 -22 10 9 29 11 80 3 80 -6 0 -10 -15 -11 -32 l-1 -33 -8
33 c-10 43 -18 50 -24 21z"/>
<path d="M1366 664 c-2 -6 -8 -32 -11 -58 -7 -42 -6 -46 14 -46 11 0 21 5 21
10 0 6 -7 10 -16 10 -15 0 -15 2 0 24 11 17 12 26 4 28 -7 3 -2 13 12 26 22
21 22 21 2 19 -12 -1 -23 -6 -26 -13z"/>
<path d="M1483 594 c-33 -16 -63 -66 -63 -104 0 -69 86 -127 148 -101 40 17
70 50 76 85 3 16 2 26 -1 22 -4 -4 -8 -16 -10 -28 -10 -67 -111 -98 -165 -50
-11 9 -15 19 -9 26 12 16 21 86 10 86 -5 0 -9 -10 -10 -22 -2 -58 -14 -81 -24
-48 -18 58 19 120 85 138 20 6 26 10 15 11 -11 0 -34 -7 -52 -15z"/>
<path d="M1582 584 c25 -13 48 -42 48 -60 0 -3 -6 -1 -14 5 -17 15 -23 6 -32
-47 -5 -35 -4 -42 10 -42 9 0 18 11 22 28 10 47 14 53 25 46 16 -9 -8 35 -34
64 -11 12 -28 22 -36 22 -10 -1 -5 -7 11 -16z m22 -119 c-4 -8 -8 -15 -10 -15
-2 0 -4 7 -4 15 0 8 4 15 10 15 5 0 7 -7 4 -15z"/>
<path d="M1517 573 c-4 -3 -7 -15 -7 -25 0 -10 -4 -18 -9 -18 -16 0 -20 -41
-5 -47 20 -7 18 -23 -3 -23 -13 0 -14 -3 -5 -12 21 -21 36 7 36 67 1 44 3 52
12 40 15 -20 25 -19 17 2 -4 11 -3 14 5 9 7 -4 12 -2 12 3 0 12 -43 15 -53 4z
m-3 -68 c-4 -8 -8 -15 -10 -15 -2 0 -4 7 -4 15 0 8 4 15 10 15 5 0 7 -7 4 -15z"/>
<path d="M632 496 c-11 -53 -1 -72 13 -24 15 53 24 56 18 6 -3 -24 -2 -40 2
-35 7 6 12 25 14 65 1 6 4 12 9 12 4 0 6 -19 4 -42 -4 -52 14 -32 20 21 3 34
2 35 -34 36 -36 2 -38 0 -46 -39z"/>
<path d="M737 534 c-13 -13 -7 -26 9 -20 10 4 6 -5 -10 -25 -28 -33 -27 -49 5
-46 21 1 33 30 27 68 -3 23 -19 35 -31 23z m13 -64 c0 -5 -5 -10 -11 -10 -5 0
-7 5 -4 10 3 6 8 10 11 10 2 0 4 -4 4 -10z"/>
<path d="M789 535 c-7 -13 -3 -84 4 -92 7 -6 19 23 31 70 4 19 3 26 -4 22 -5
-3 -10 -14 -11 -23 -1 -10 -4 -7 -8 8 -4 14 -9 20 -12 15z"/>
<path d="M840 525 c-1 -5 -3 -27 -6 -47 -4 -24 -2 -38 5 -38 6 0 11 11 11 24
0 37 10 56 31 56 10 0 19 4 19 8 0 12 -60 9 -60 -3z"/>
<path d="M923 528 c-14 -18 -22 -64 -12 -79 10 -17 39 -3 38 18 0 11 -3 13 -6
5 -8 -21 -21 -4 -15 23 4 21 7 23 19 13 13 -10 15 -9 12 6 -5 24 -23 31 -36
14z"/>
<path d="M979 523 c-12 -15 -12 -16 4 -10 22 8 22 1 -3 -30 -26 -34 -25 -43 4
-41 26 2 34 17 32 63 -1 34 -18 42 -37 18z m21 -47 c0 -3 -4 -8 -10 -11 -5 -3
-10 -1 -10 4 0 6 5 11 10 11 6 0 10 -2 10 -4z"/>
<path d="M1070 529 c0 -5 5 -9 10 -9 6 0 4 -13 -5 -30 -20 -39 -19 -50 5 -50
11 0 20 5 20 10 0 6 -5 10 -10 10 -6 0 -4 13 5 30 20 38 19 45 -5 47 -11 1
-20 -2 -20 -8z"/>
<path d="M1125 530 c-9 -15 -13 -90 -4 -90 5 0 9 10 10 23 0 12 5 31 10 42 7
15 8 11 5 -17 -3 -21 0 -40 5 -43 5 -4 9 -3 10 2 0 4 2 27 5 50 5 38 4 42 -16
40 -12 -1 -23 -4 -25 -7z"/>
<path d="M1189 523 c-12 -15 -12 -16 4 -10 23 9 22 -5 -3 -26 -28 -24 -26 -47
5 -47 25 0 26 1 29 64 1 34 -15 44 -35 19z m15 -58 c-4 -8 -8 -15 -10 -15 -2
0 -4 7 -4 15 0 8 4 15 10 15 5 0 7 -7 4 -15z"/>
<path d="M1245 513 c-3 -13 -7 -34 -10 -48 -3 -14 -1 -25 5 -25 5 0 10 3 11 8
3 29 11 67 15 71 2 2 4 -16 5 -40 0 -34 2 -39 9 -24 5 11 9 34 9 52 1 26 -3
31 -19 30 -13 -1 -22 -10 -25 -24z"/>
<path d="M1310 530 c0 -5 5 -10 11 -10 5 0 7 5 4 10 -3 6 -8 10 -11 10 -2 0
-4 -4 -4 -10z"/>
<path d="M1353 533 c-7 -2 -13 -9 -13 -15 0 -6 7 -8 15 -4 22 8 18 -7 -5 -22
-28 -17 -27 -53 2 -49 21 4 23 8 28 52 5 44 1 50 -27 38z m7 -63 c0 -5 -5 -10
-11 -10 -5 0 -7 5 -4 10 3 6 8 10 11 10 2 0 4 -4 4 -10z"/>
<path d="M1543 513 c-4 -9 -1 -19 5 -21 7 -2 12 -10 12 -18 0 -8 -6 -11 -16
-7 -12 4 -15 2 -12 -8 8 -24 31 -16 39 14 5 20 4 27 -7 27 -20 0 -17 18 4 23
16 4 16 5 -1 6 -10 0 -21 -7 -24 -16z"/>
<path d="M879 498 c0 -7 -2 -23 -5 -35 -2 -13 0 -23 5 -23 12 0 20 59 9 66 -4
3 -8 -1 -9 -8z"/>
<path d="M1300 471 c0 -17 -5 -33 -10 -36 -6 -4 -7 -11 -4 -17 11 -17 34 21
34 54 0 15 -4 28 -10 28 -5 0 -10 -13 -10 -29z"/>
</g>
</svg>
